<mxfile host="app.diagrams.net" modified="2021-03-01T05:55:36.503Z" agent="5.0 (Windows NT 10.0; Win64; x64) AppleWebKit/537.36 (KHTML, like Gecko) Chrome/88.0.4324.190 Safari/537.36" etag="DrMAEzOvz1XaTGo8rb1J" version="14.4.3" type="github">
  <diagram id="C5RBs43oDa-KdzZeNtuy" name="Page-1">
    <mxGraphModel dx="1038" dy="523" grid="1" gridSize="10" guides="1" tooltips="1" connect="1" arrows="1" fold="1" page="1" pageScale="1" pageWidth="827" pageHeight="1169" math="0" shadow="0">
      <root>
        <mxCell id="WIyWlLk6GJQsqaUBKTNV-0" />
        <mxCell id="WIyWlLk6GJQsqaUBKTNV-1" parent="WIyWlLk6GJQsqaUBKTNV-0" />
        <mxCell id="Pv9x8nkqoJlNe-WankIY-0" value="Identifikasi Masalah" style="rounded=0;whiteSpace=wrap;html=1;" vertex="1" parent="WIyWlLk6GJQsqaUBKTNV-1">
          <mxGeometry x="310" y="110" width="120" height="30" as="geometry" />
        </mxCell>
        <mxCell id="Pv9x8nkqoJlNe-WankIY-1" value="Communication" style="rounded=0;whiteSpace=wrap;html=1;fillColor=#f5f5f5;strokeColor=#666666;fontColor=#333333;" vertex="1" parent="WIyWlLk6GJQsqaUBKTNV-1">
          <mxGeometry x="130" y="170" width="480" height="20" as="geometry" />
        </mxCell>
        <mxCell id="Pv9x8nkqoJlNe-WankIY-2" value="" style="rounded=0;whiteSpace=wrap;html=1;" vertex="1" parent="WIyWlLk6GJQsqaUBKTNV-1">
          <mxGeometry x="130" y="190" width="480" height="70" as="geometry" />
        </mxCell>
        <mxCell id="Pv9x8nkqoJlNe-WankIY-3" value="Studi Literatur" style="rounded=0;whiteSpace=wrap;html=1;" vertex="1" parent="WIyWlLk6GJQsqaUBKTNV-1">
          <mxGeometry x="150" y="210" width="120" height="30" as="geometry" />
        </mxCell>
        <mxCell id="Pv9x8nkqoJlNe-WankIY-4" value="Wawancara" style="rounded=0;whiteSpace=wrap;html=1;" vertex="1" parent="WIyWlLk6GJQsqaUBKTNV-1">
          <mxGeometry x="310" y="210" width="120" height="30" as="geometry" />
        </mxCell>
        <mxCell id="Pv9x8nkqoJlNe-WankIY-5" value="Survey Data" style="rounded=0;whiteSpace=wrap;html=1;" vertex="1" parent="WIyWlLk6GJQsqaUBKTNV-1">
          <mxGeometry x="470" y="210" width="120" height="30" as="geometry" />
        </mxCell>
        <mxCell id="Pv9x8nkqoJlNe-WankIY-6" value="Quick Plan &amp;amp; Modeling Quick Design" style="rounded=0;whiteSpace=wrap;html=1;fillColor=#f5f5f5;strokeColor=#666666;fontColor=#333333;" vertex="1" parent="WIyWlLk6GJQsqaUBKTNV-1">
          <mxGeometry x="130" y="290" width="480" height="20" as="geometry" />
        </mxCell>
        <mxCell id="Pv9x8nkqoJlNe-WankIY-7" value="" style="rounded=0;whiteSpace=wrap;html=1;" vertex="1" parent="WIyWlLk6GJQsqaUBKTNV-1">
          <mxGeometry x="130" y="310" width="480" height="70" as="geometry" />
        </mxCell>
        <mxCell id="Pv9x8nkqoJlNe-WankIY-8" value="Analisis Kebutuhan Perangkat" style="rounded=0;whiteSpace=wrap;html=1;" vertex="1" parent="WIyWlLk6GJQsqaUBKTNV-1">
          <mxGeometry x="150" y="330" width="130" height="30" as="geometry" />
        </mxCell>
        <mxCell id="Pv9x8nkqoJlNe-WankIY-12" value="Perancangan Perangkat Hardware" style="rounded=0;whiteSpace=wrap;html=1;" vertex="1" parent="WIyWlLk6GJQsqaUBKTNV-1">
          <mxGeometry x="460" y="330" width="130" height="30" as="geometry" />
        </mxCell>
        <mxCell id="Pv9x8nkqoJlNe-WankIY-13" value="Construction of Prototype &amp;amp; Develoyment Delivery" style="rounded=0;whiteSpace=wrap;html=1;fillColor=#f5f5f5;strokeColor=#666666;fontColor=#333333;" vertex="1" parent="WIyWlLk6GJQsqaUBKTNV-1">
          <mxGeometry x="130" y="410" width="480" height="20" as="geometry" />
        </mxCell>
        <mxCell id="Pv9x8nkqoJlNe-WankIY-14" value="" style="rounded=0;whiteSpace=wrap;html=1;" vertex="1" parent="WIyWlLk6GJQsqaUBKTNV-1">
          <mxGeometry x="130" y="430" width="480" height="70" as="geometry" />
        </mxCell>
        <mxCell id="Pv9x8nkqoJlNe-WankIY-15" value="Implementasi Prototyping" style="rounded=0;whiteSpace=wrap;html=1;" vertex="1" parent="WIyWlLk6GJQsqaUBKTNV-1">
          <mxGeometry x="150" y="450" width="140" height="30" as="geometry" />
        </mxCell>
        <mxCell id="Pv9x8nkqoJlNe-WankIY-17" value="Pengujian" style="rounded=0;whiteSpace=wrap;html=1;" vertex="1" parent="WIyWlLk6GJQsqaUBKTNV-1">
          <mxGeometry x="440" y="450" width="150" height="30" as="geometry" />
        </mxCell>
        <mxCell id="Pv9x8nkqoJlNe-WankIY-21" value="" style="endArrow=classic;html=1;exitX=1.005;exitY=0.414;exitDx=0;exitDy=0;exitPerimeter=0;dashed=1;" edge="1" parent="WIyWlLk6GJQsqaUBKTNV-1" source="Pv9x8nkqoJlNe-WankIY-14">
          <mxGeometry width="50" height="50" relative="1" as="geometry">
            <mxPoint x="390" y="330" as="sourcePoint" />
            <mxPoint x="612" y="340" as="targetPoint" />
            <Array as="points">
              <mxPoint x="640" y="459" />
              <mxPoint x="640" y="340" />
            </Array>
          </mxGeometry>
        </mxCell>
        <mxCell id="Pv9x8nkqoJlNe-WankIY-22" value="" style="endArrow=classic;html=1;exitX=0.5;exitY=1;exitDx=0;exitDy=0;entryX=0.5;entryY=0;entryDx=0;entryDy=0;" edge="1" parent="WIyWlLk6GJQsqaUBKTNV-1" source="Pv9x8nkqoJlNe-WankIY-0" target="Pv9x8nkqoJlNe-WankIY-1">
          <mxGeometry width="50" height="50" relative="1" as="geometry">
            <mxPoint x="390" y="330" as="sourcePoint" />
            <mxPoint x="440" y="280" as="targetPoint" />
          </mxGeometry>
        </mxCell>
        <mxCell id="Pv9x8nkqoJlNe-WankIY-23" value="" style="endArrow=classic;html=1;exitX=0.5;exitY=1;exitDx=0;exitDy=0;entryX=0.5;entryY=0;entryDx=0;entryDy=0;" edge="1" parent="WIyWlLk6GJQsqaUBKTNV-1" source="Pv9x8nkqoJlNe-WankIY-2" target="Pv9x8nkqoJlNe-WankIY-6">
          <mxGeometry width="50" height="50" relative="1" as="geometry">
            <mxPoint x="390" y="350" as="sourcePoint" />
            <mxPoint x="440" y="300" as="targetPoint" />
          </mxGeometry>
        </mxCell>
        <mxCell id="Pv9x8nkqoJlNe-WankIY-24" value="" style="endArrow=classic;html=1;entryX=0.5;entryY=0;entryDx=0;entryDy=0;exitX=0.5;exitY=1;exitDx=0;exitDy=0;exitPerimeter=0;" edge="1" parent="WIyWlLk6GJQsqaUBKTNV-1" source="Pv9x8nkqoJlNe-WankIY-7" target="Pv9x8nkqoJlNe-WankIY-13">
          <mxGeometry width="50" height="50" relative="1" as="geometry">
            <mxPoint x="390" y="350" as="sourcePoint" />
            <mxPoint x="440" y="300" as="targetPoint" />
          </mxGeometry>
        </mxCell>
        <mxCell id="Pv9x8nkqoJlNe-WankIY-26" value="" style="endArrow=classic;html=1;exitX=1;exitY=0.5;exitDx=0;exitDy=0;" edge="1" parent="WIyWlLk6GJQsqaUBKTNV-1" source="Pv9x8nkqoJlNe-WankIY-8" target="Pv9x8nkqoJlNe-WankIY-12">
          <mxGeometry width="50" height="50" relative="1" as="geometry">
            <mxPoint x="312" y="350" as="sourcePoint" />
            <mxPoint x="362" y="300" as="targetPoint" />
          </mxGeometry>
        </mxCell>
        <mxCell id="Pv9x8nkqoJlNe-WankIY-27" value="" style="endArrow=classic;html=1;exitX=1;exitY=0.5;exitDx=0;exitDy=0;" edge="1" parent="WIyWlLk6GJQsqaUBKTNV-1">
          <mxGeometry width="50" height="50" relative="1" as="geometry">
            <mxPoint x="290" y="466" as="sourcePoint" />
            <mxPoint x="440" y="466" as="targetPoint" />
          </mxGeometry>
        </mxCell>
        <mxCell id="Pv9x8nkqoJlNe-WankIY-28" value="Kesimpulan dan Saran" style="rounded=0;whiteSpace=wrap;html=1;" vertex="1" parent="WIyWlLk6GJQsqaUBKTNV-1">
          <mxGeometry x="295" y="530" width="150" height="30" as="geometry" />
        </mxCell>
        <mxCell id="Pv9x8nkqoJlNe-WankIY-29" value="" style="endArrow=classic;html=1;exitX=0.5;exitY=1;exitDx=0;exitDy=0;entryX=0.5;entryY=0;entryDx=0;entryDy=0;" edge="1" parent="WIyWlLk6GJQsqaUBKTNV-1" source="Pv9x8nkqoJlNe-WankIY-14" target="Pv9x8nkqoJlNe-WankIY-28">
          <mxGeometry width="50" height="50" relative="1" as="geometry">
            <mxPoint x="390" y="620" as="sourcePoint" />
            <mxPoint x="440" y="570" as="targetPoint" />
          </mxGeometry>
        </mxCell>
      </root>
    </mxGraphModel>
  </diagram>
</mxfile>
